HIERARCHY
ROOT Hips
{
     OFFSET 1.88212 96.90440 -13.34250
     CHANNELS 6 Xposition Yposition Zposition Zrotation Xrotation Yrotation
     JOINT Spine
     {
          OFFSET 0.00000 11.89050 0.00000
          CHANNELS 3 Zrotation Xrotation Yrotation
          JOINT Spine1
          {
               OFFSET -0.00000 25.65740 0.12766
               CHANNELS 3 Zrotation Xrotation Yrotation
               JOINT HEad
               {
                    OFFSET 0.00000 8.73416 0.01134
                    CHANNELS 3 Zrotation Xrotation Yrotation
                    End Site
                    {
                         OFFSET -0.29000 12.77420 2.51395
                    }
               }
               JOINT LeftShoulder1
               {
                    OFFSET 8.99000 -0.36225 -0.22000
                    CHANNELS 3 Zrotation Xrotation Yrotation
                    JOINT LeftArm
                    {
                         OFFSET 10.28270 -0.00338 0.32212
                         CHANNELS 3 Zrotation Xrotation Yrotation
                         JOINT LeftForeArm
                         {
                              OFFSET 32.76690 0.09914 -1.42434
                              CHANNELS 3 Zrotation Xrotation Yrotation
                              JOINT LeftHand
                              {
                                   OFFSET 27.56430 0.08536 1.02216
                                   CHANNELS 3 Zrotation Xrotation Yrotation
                                   End Site
                                   {
                                        OFFSET 16.74430 -0.60000 1.50291
                                   }
                              }
                         }
                    }
               }
               JOINT RightShoulder
               {
                    OFFSET -8.99000 -0.36225 -0.22000
                    CHANNELS 3 Zrotation Xrotation Yrotation
                    JOINT RightArm
                    {
                         OFFSET -10.28270 -0.00338 0.32212
                         CHANNELS 3 Zrotation Xrotation Yrotation
                         JOINT RightForeArm
                         {
                              OFFSET -32.89710 0.09914 -1.42434
                              CHANNELS 3 Zrotation Xrotation Yrotation
                              JOINT RightHand
                              {
                                   OFFSET -27.49210 0.08536 1.02216
                                   CHANNELS 3 Zrotation Xrotation Yrotation
                                   End Site
                                   {
                                        OFFSET -16.63120 -0.60000 1.50291
                                   }
                              }
                         }
                    }
               }
          }
     }
     JOINT LeftUpLeg
     {
          OFFSET 8.94580 -8.66707 0.10165
          CHANNELS 3 Zrotation Xrotation Yrotation
          JOINT LeftLeg
          {
               OFFSET 0.00000 -44.42270 1.37270
               CHANNELS 3 Zrotation Xrotation Yrotation
               JOINT LeftFoot
               {
                    OFFSET -0.25355 -42.09240 -1.46059
                    CHANNELS 3 Zrotation Xrotation Yrotation
                    JOINT LeftToes
                    {
                         OFFSET -0.04000 -4.41509 8.49910
                         CHANNELS 3 Zrotation Xrotation Yrotation
                         End Site
                         {
                              OFFSET 0.08000 -0.04745 9.77979
                         }
                    }
               }
          }
     }
     JOINT RightUpLeg
     {
          OFFSET -8.94580 -8.66707 0.10165
          CHANNELS 3 Zrotation Xrotation Yrotation
          JOINT RightLeg
          {
               OFFSET 0.00000 -44.42270 1.37270
               CHANNELS 3 Zrotation Xrotation Yrotation
               JOINT RightFoot
               {
                    OFFSET 0.25355 -42.09240 -1.46059
                    CHANNELS 3 Zrotation Xrotation Yrotation
                    JOINT RightToes
                    {
                         OFFSET 0.04000 -4.41509 8.49910
                         CHANNELS 3 Zrotation Xrotation Yrotation
                         End Site
                         {
                              OFFSET -0.08000 -0.13745 9.77979
                         }
                    }
               }
          }
     }
}
MOTION
Frames: 17
Frame Time: 0.01667
10.50287 35.19331 -127.43643 14.96390 -0.91597 -4.53286 -20.33604 43.10653 6.00424 -0.01116 0.02531 0.00553 2.32422 -37.99274 28.14428 -2.59033 1.58912 1.62339 -147.81961 -68.04956 -107.80109 -68.77738 58.41946 -75.09101 6.23650 12.11514 0.33110 6.15302 4.05335 9.15907 73.10023 -24.52059 81.59046 33.91366 43.76247 94.11953 -5.99486 12.22736 3.24473 35.27168 -59.62211 -1.82434 57.20462 79.24876 -57.20990 -30.21637 -0.06088 -0.05654 -12.47652 -32.54924 -4.90738 -107.04153 -69.99309 -77.82927 -183.84567 42.99187 178.83220 6.74376 -0.13855 0.02183 -26.11954 -66.21163 -21.43982 
8.53969 37.17145 -126.39038 15.39383 -1.20101 -5.30592 -19.27295 40.40318 5.22231 -0.00789 0.02715 0.00559 1.21996 -37.85714 29.65057 -4.02839 3.81421 1.91478 -155.44662 -68.76505 -116.23431 -62.73735 59.86125 -81.34777 7.47220 25.87853 -6.73717 4.87333 6.22055 9.19308 72.84798 -20.61567 85.58474 32.43708 41.37568 91.48203 -5.54069 9.80961 2.13264 36.55352 -54.92308 0.28182 40.70348 77.11787 -38.49980 -28.85109 -0.01405 -0.03844 -21.52160 -30.44687 -14.96455 -98.84764 -69.68781 -73.80112 -182.75337 45.71136 176.69910 5.60108 -0.13255 0.01413 -29.08136 -66.36765 -24.51719 
6.48904 39.46986 -125.27499 15.87647 -1.45097 -6.12315 -18.41656 37.65868 4.69759 -0.01063 0.02884 0.00726 0.05204 -37.26376 31.06180 -5.40482 5.75887 2.24072 -161.64735 -69.33675 -123.08540 -58.94564 60.59668 -85.15157 5.78946 8.63129 1.37919 3.29247 8.09080 9.51580 72.64305 -18.12623 87.72304 31.05503 39.92207 90.47578 -5.73849 11.35021 2.26936 37.24583 -49.99888 2.20451 26.08356 73.98676 -21.16744 -26.95400 -0.04062 -0.03735 -3.41184 -18.45368 2.04577 -88.68231 -69.21251 -67.64118 -181.79814 47.15213 174.62735 4.68474 -0.01133 -0.02452 -33.66424 -68.34055 -29.40469 
4.04718 42.40085 -123.92504 16.40446 -1.65088 -6.93434 -17.79343 34.84579 4.42958 -0.01116 0.02578 0.00752 -2.47640 -35.31092 32.27330 -7.00443 7.20325 2.53363 -176.78108 -68.35114 -140.41905 -55.52430 60.49173 -88.78027 11.94993 30.05824 -9.99209 1.59311 9.51009 9.95873 70.88659 -14.91586 91.78894 30.06375 35.93629 87.53323 -4.86287 10.27320 1.44001 37.37999 -44.78795 4.14148 15.37549 70.29229 -7.93755 -24.43131 -0.04652 -0.04996 -11.40933 -20.03997 -6.67716 -76.06757 -68.07848 -58.87493 -181.33415 48.78696 172.88365 3.88295 0.00294 -0.02877 -39.15208 -71.18378 -35.05123 
1.54707 45.40794 -122.43163 16.91989 -1.81565 -7.66875 -17.38103 32.00060 4.41826 -0.01655 0.02842 0.00909 -6.03951 -32.14904 33.33932 -8.45949 8.54440 2.96846 -185.23119 -66.97036 -150.61195 -53.94308 60.45797 -90.22505 0.02280 11.52535 1.87569 -0.23757 10.80000 10.61691 69.96671 -13.29013 93.90384 29.08916 33.69131 86.45247 -4.76462 11.07757 1.31335 37.15451 -39.43620 6.39149 8.58221 65.81311 1.24874 -22.06631 -0.07450 -0.02893 -2.39390 -1.44858 3.45795 -62.68894 -65.64661 -49.14957 -180.84241 51.33109 171.27710 3.42749 0.00810 -0.01763 -47.78593 -74.14426 -43.45995 
-1.03368 48.52311 -120.72354 17.40846 -1.94772 -8.26552 -17.20744 29.13732 4.68123 -0.02154 0.03246 0.01106 -10.30911 -27.91448 34.37624 -9.89022 9.83507 3.55331 -189.41534 -65.91121 -156.39688 -53.33696 60.48775 -90.56764 7.77347 18.96112 -3.87994 -2.05644 12.01105 11.55705 69.71978 -12.89074 94.99660 25.18652 36.06373 90.20183 -7.42790 7.81044 -2.10989 36.67447 -34.19180 9.24764 5.04910 60.96730 6.53671 -20.00097 -0.06803 -0.01696 -5.80766 -7.16295 -2.62775 -50.61526 -61.68749 -40.45555 -180.11940 54.82328 169.81152 3.33269 0.00639 -0.00528 -60.53483 -77.07602 -55.27444 
-3.68428 51.71329 -118.75689 17.85154 -2.05144 -8.65596 -18.55028 26.04235 6.39218 -0.11646 0.02523 0.05967 -12.84520 -23.44998 34.81317 -9.73044 11.37697 3.50579 -190.91693 -65.19980 -159.36015 -53.09999 60.53849 -90.32053 2.10707 8.85372 0.87408 -2.00958 13.42047 11.81624 69.67492 -13.23616 95.45054 23.04534 36.97625 92.15988 -8.97147 6.82990 -3.43701 36.02644 -29.51276 12.87112 2.74879 58.26248 8.88600 -24.01210 0.21876 -0.03704 -7.87889 6.96371 5.24645 -40.84127 -56.35272 -33.71930 -178.95601 59.25766 168.39560 3.58555 0.00238 0.00452 -208.47916 -85.06513 -192.66142 
-6.38023 54.92859 -116.51645 18.23579 -2.13208 -8.77371 -20.94498 22.84271 9.16160 -0.10611 0.03552 0.05636 -14.00671 -18.87414 34.64297 -8.35835 12.99804 2.87013 -190.57301 -64.78819 -160.32573 -53.02579 60.52055 -89.90614 6.96398 13.87369 -2.01813 -0.29740 14.90324 11.21508 69.51912 -13.93775 95.36182 21.94588 37.31528 93.16411 -9.23978 5.76589 -4.03736 35.36619 -25.59982 17.28360 1.60241 56.74434 8.27146 -24.48765 0.12723 -0.01839 -0.62503 -2.76410 -2.26187 -33.23116 -50.05415 -28.74412 -175.30779 64.77235 167.10237 4.97402 -0.03381 0.01333 -125.45092 -82.63493 -112.15565 
-9.07946 58.09157 -114.04590 17.92676 -1.75107 -6.74246 -22.63258 20.05062 10.73072 -0.08808 0.04468 0.05258 -13.95164 -14.27478 33.69166 -5.79529 14.54571 1.44687 -188.90588 -64.54825 -159.75197 -52.92356 60.52805 -89.46100 3.77194 8.40063 0.00839 3.00257 16.26143 9.50173 69.15469 -14.78036 94.82458 21.42110 37.46539 93.84793 -9.54591 5.67703 -3.73205 34.93908 -23.83537 20.96876 1.78633 55.92777 5.13863 -30.36577 0.19958 -0.09792 -10.94448 1.29613 4.25938 -28.44733 -42.62934 -27.54439 -163.29942 73.03133 160.71329 12.37894 -0.50114 0.04213 -245.11121 -83.32114 -212.41566 
-11.87663 61.26992 -111.42418 16.97690 -1.06086 -2.92413 -23.78622 17.92190 11.44565 -0.06864 0.05397 0.04975 -12.91592 -9.84201 31.83851 -7.67415 6.90240 6.16465 -162.75528 -72.30019 -139.17485 -52.58865 60.39349 -88.88819 6.77080 11.56292 -1.45393 7.63622 17.16177 6.59684 68.53370 -15.64489 93.89799 21.16776 37.64463 94.63561 -9.43157 5.43591 -3.40927 34.31168 -24.38421 23.86059 -1.43677 57.90719 3.89456 -30.03651 0.07612 -0.00011 0.07379 -5.14024 -1.91045 -24.55862 -35.37963 -28.29403 -141.97801 78.83766 145.47733 19.82820 -0.50096 0.16811 -358.36572 -82.54430 -309.16733 
-15.02335 64.65265 -108.66011 15.33112 -0.30559 2.39520 -23.33563 16.44625 10.44702 0.02525 0.02736 -0.02418 -12.00219 -5.50477 30.02028 -4.26853 9.25353 3.58582 -161.02850 -70.67815 -137.59746 -52.29861 60.13603 -88.37666 4.73022 8.80884 -0.58769 12.09096 17.87192 3.81426 67.58398 -16.75143 92.54441 21.09160 37.85993 95.70671 -9.77337 5.43694 -2.50864 33.17470 -26.83547 25.85408 -9.12950 60.94089 6.67732 -30.04970 0.02122 -0.01325 -11.48096 -9.54541 -2.86683 -20.22008 -28.67406 -29.80893 -101.78408 81.78742 111.29237 27.33457 -0.50335 0.26639 -403.85632 -67.09291 -358.50974 
-18.14611 67.89323 -106.02544 12.95323 0.29106 8.97170 -21.50539 15.77781 7.68255 0.03241 0.02379 -0.02513 -11.08440 -1.68949 28.35658 -1.22260 10.97257 1.36978 -158.90851 -69.19697 -135.54964 -52.08121 59.76492 -88.03450 6.35926 10.71123 -1.07421 16.17148 18.14454 1.30574 66.57222 -17.76908 91.01032 21.03291 38.20993 97.01105 -9.57832 5.57967 -2.29029 31.95710 -30.16743 27.14400 -10.45160 62.61487 4.03815 -30.01291 0.00307 0.02190 -14.31947 -15.35775 -7.30672 -15.09844 -22.89844 -31.82011 -54.21966 79.16222 69.01550 14.98457 0.72768 -0.23624 -382.91058 -55.64846 -359.27777 
-21.15695 70.94474 -103.59229 9.73214 0.49938 16.43935 -18.27187 15.54726 3.52559 0.03152 0.02203 -0.02360 -10.27915 1.61937 26.86567 1.28808 12.24615 -0.50762 -156.82568 -67.81980 -133.51511 -51.83697 59.40803 -87.88807 4.93152 9.25601 -0.38751 19.69500 18.11418 -0.79602 65.58308 -18.68345 89.37473 20.92761 38.67243 98.47926 -9.75931 5.75731 -1.77610 30.25915 -34.30263 27.52924 -14.94227 64.18768 3.43451 -30.04522 0.01595 -0.02330 -19.28116 -14.18663 -13.45492 -8.85236 -18.54202 -34.00546 -34.60774 73.87423 53.10366 2.95760 0.82676 -0.04420 -370.95358 -40.71041 -368.99124 
-23.99378 73.72903 -101.41643 7.03207 0.31450 22.88388 -15.42606 15.24459 -0.05648 0.02933 0.02085 -0.02177 -9.62089 4.42734 25.51171 3.29107 13.16563 -2.07944 -154.92166 -66.54746 -131.62970 -51.55340 59.04027 -87.89304 5.82095 10.39449 -0.43217 22.56807 17.86889 -2.45530 64.71763 -19.48524 87.72644 20.76573 39.21117 99.98130 -9.58974 6.04679 -1.70437 28.05647 -37.38393 28.72849 -11.95306 64.72668 -4.45574 -30.01399 -0.00056 0.02436 -7.56849 -16.19161 -10.27962 -3.34541 -15.70025 -34.69342 -31.75288 67.42238 50.09808 15.37393 -0.40983 -0.06502 -377.58014 -27.78943 -375.42545 
-26.61070 76.20048 -99.51471 4.80082 -0.09077 28.34454 -12.87459 14.89684 -3.06608 0.02649 0.02008 -0.01981 -9.12392 6.74035 24.27193 4.82107 13.79386 -3.38798 -153.26047 -65.36714 -129.95836 -51.20435 58.70839 -87.99182 4.92113 9.61475 0.09480 24.74372 17.48271 -3.67460 64.05557 -20.17500 86.16768 20.59153 39.75649 101.37665 -9.62530 6.31904 -1.45669 25.74183 -39.39253 30.69817 1.24720 63.18684 -21.43754 -30.02474 -0.00273 0.02020 -9.33550 -14.58664 -10.50924 0.76799 -13.86320 -33.99650 -33.59826 61.53976 47.19614 5.24121 -0.11155 -0.17682 -361.80978 -33.20623 -374.75739 
-28.99787 78.35301 -97.88101 2.97662 -0.59707 32.86082 -10.56370 14.52888 -5.49883 0.02329 0.01943 -0.01786 -8.78983 8.57022 23.13571 5.92614 14.17491 -4.45808 -151.87975 -64.26895 -128.56398 -50.82338 58.36909 -88.11374 5.46720 10.29501 0.13246 26.24199 17.01017 -4.48155 63.62940 -20.75389 84.78226 20.44975 40.25340 102.53655 -9.42209 6.67542 -1.44803 23.22182 -40.60783 32.96773 15.88529 58.13231 -39.17300 -30.01675 -0.00271 0.01294 -8.71193 -13.27152 -8.68955 3.25367 -12.50692 -32.03866 -36.48185 56.38708 42.22844 11.42480 0.09375 -0.07710 -374.07016 -23.01863 -378.57385 
-31.22451 80.21515 -96.48316 1.48987 -1.12215 36.48341 -8.46211 14.16523 -7.36228 0.02000 0.01873 -0.01607 -8.60716 9.93580 22.10155 6.64050 14.34423 -5.32094 -150.79897 -63.23977 -127.49999 -50.42113 58.04007 -88.20860 4.96871 9.88167 0.44146 27.13351 16.48590 -4.92660 63.43789 -21.21814 83.62833 20.37417 40.66045 103.38474 -9.32269 6.99826 -1.30401 20.31292 -41.29079 34.89414 26.41111 50.33824 -52.14739 -30.00883 -0.00263 0.00771 -10.92657 -11.20476 -7.32142 4.16911 -11.24239 -28.98030 -40.67043 52.86295 36.46341 8.98818 -0.17266 -0.03545 -353.78232 -26.33080 -369.49567 
